<mxfile host="app.diagrams.net" modified="2022-06-29T08:30:09.432Z" agent="5.0 (Windows NT 10.0; Win64; x64) AppleWebKit/537.36 (KHTML, like Gecko) Chrome/103.0.0.0 Safari/537.36" etag="lgfCSJbQc4_2KVujL8Vi" version="20.0.3" type="github">
  <diagram id="WxofzhqPijOSikos3FHB" name="Page-1">
    <mxGraphModel dx="1422" dy="762" grid="1" gridSize="10" guides="1" tooltips="1" connect="1" arrows="1" fold="1" page="1" pageScale="1" pageWidth="1100" pageHeight="850" math="0" shadow="0">
      <root>
        <mxCell id="0" />
        <mxCell id="1" parent="0" />
        <mxCell id="8hg9rA8bp6VnjMarO-Az-4" value="AdRequst" style="rounded=0;whiteSpace=wrap;html=1;fillColor=default;strokeWidth=2;" vertex="1" parent="1">
          <mxGeometry x="450" y="180" width="120" height="60" as="geometry" />
        </mxCell>
        <mxCell id="8hg9rA8bp6VnjMarO-Az-7" style="edgeStyle=orthogonalEdgeStyle;rounded=0;orthogonalLoop=1;jettySize=auto;html=1;entryX=0.75;entryY=1;entryDx=0;entryDy=0;endArrow=diamondThin;endFill=1;" edge="1" parent="1" source="8hg9rA8bp6VnjMarO-Az-6" target="8hg9rA8bp6VnjMarO-Az-4">
          <mxGeometry relative="1" as="geometry" />
        </mxCell>
        <mxCell id="8hg9rA8bp6VnjMarO-Az-9" value="1...1" style="edgeLabel;html=1;align=center;verticalAlign=middle;resizable=0;points=[];" vertex="1" connectable="0" parent="8hg9rA8bp6VnjMarO-Az-7">
          <mxGeometry x="0.4645" y="2" relative="1" as="geometry">
            <mxPoint y="-13" as="offset" />
          </mxGeometry>
        </mxCell>
        <mxCell id="8hg9rA8bp6VnjMarO-Az-6" value="PlacementPage" style="rounded=0;whiteSpace=wrap;html=1;fillColor=default;strokeWidth=2;" vertex="1" parent="1">
          <mxGeometry x="720" y="340" width="120" height="60" as="geometry" />
        </mxCell>
        <mxCell id="8hg9rA8bp6VnjMarO-Az-10" value="1...N" style="edgeStyle=orthogonalEdgeStyle;rounded=0;orthogonalLoop=1;jettySize=auto;html=1;entryX=0.867;entryY=0.983;entryDx=0;entryDy=0;entryPerimeter=0;endArrow=diamondThin;endFill=1;" edge="1" parent="1" source="8hg9rA8bp6VnjMarO-Az-8" target="8hg9rA8bp6VnjMarO-Az-4">
          <mxGeometry relative="1" as="geometry">
            <Array as="points">
              <mxPoint x="770" y="260" />
              <mxPoint x="554" y="260" />
            </Array>
          </mxGeometry>
        </mxCell>
        <mxCell id="8hg9rA8bp6VnjMarO-Az-8" value="PlaceMment" style="rounded=0;whiteSpace=wrap;html=1;fillColor=default;strokeWidth=2;" vertex="1" parent="1">
          <mxGeometry x="710" y="180" width="120" height="60" as="geometry" />
        </mxCell>
        <mxCell id="8hg9rA8bp6VnjMarO-Az-12" value="1...1" style="edgeStyle=orthogonalEdgeStyle;rounded=0;orthogonalLoop=1;jettySize=auto;html=1;endArrow=diamondThin;endFill=1;" edge="1" parent="1" target="8hg9rA8bp6VnjMarO-Az-4">
          <mxGeometry x="0.3636" relative="1" as="geometry">
            <mxPoint x="390" y="370" as="sourcePoint" />
            <mxPoint x="486.96000000000004" y="241.98000000000002" as="targetPoint" />
            <Array as="points">
              <mxPoint x="480" y="370" />
            </Array>
            <mxPoint as="offset" />
          </mxGeometry>
        </mxCell>
        <mxCell id="8hg9rA8bp6VnjMarO-Az-11" value="User" style="rounded=0;whiteSpace=wrap;html=1;fillColor=default;strokeWidth=2;" vertex="1" parent="1">
          <mxGeometry x="270" y="340" width="120" height="60" as="geometry" />
        </mxCell>
      </root>
    </mxGraphModel>
  </diagram>
</mxfile>
